<svg xmlns="http://www.w3.org/2000/svg" height="1024" preserveAspectRatio="none" style="display: block;" version="1.1" viewBox="0 0 2048 2048" width="1024">
<defs>
	<linearGradient gradientUnits="userSpaceOnUse" id="Gradient1" x1="985.534" x2="901.031" y1="1777.67" y2="223.554">
		<stop class="stop0" offset="0" stop-color="rgb(28,50,39)" stop-opacity="1"></stop>
		<stop class="stop1" offset="1" stop-color="rgb(112,130,107)" stop-opacity="1"></stop>
	</linearGradient>
	<linearGradient gradientUnits="userSpaceOnUse" id="Gradient2" x1="567.381" x2="489.686" y1="1633.19" y2="633.724">
		<stop class="stop0" offset="0" stop-color="rgb(80,115,82)" stop-opacity="1"></stop>
		<stop class="stop1" offset="1" stop-color="rgb(165,178,150)" stop-opacity="1"></stop>
	</linearGradient>
</defs>

<path d="M 893.194 455.448 C 883.148 464.149 872.946 473.223 864.097 483.178 C 859.412 488.449 855.337 499.69 849.976 502.881 C 845.32 502.932 840.427 499.36 842.318 494.859 C 851.485 472.525 875.527 449.963 881.599 427.025 C 898.915 361.613 841.418 282.148 914.789 235.506 C 933.05 223.898 954.58 216.284 976.581 222.417 C 1032.84 238.099 1052.35 275.248 1040.47 330.83 C 1048.95 354.006 1064.71 356.887 1039.31 374.57 C 1040.51 382.699 1043.29 388.439 1034.45 391.779 C 1031.77 396.261 1034.71 401.337 1033.69 406.381 C 1029.86 425.374 1016.2 423.582 1001.01 421.677 C 998.279 423.207 998.92 423.836 997.608 427.861 C 992.861 456.638 988.903 476.244 995.652 505.168 C 1093.95 343.189 1272.56 282.724 1440.3 383.758 C 1511.94 426.912 1570.88 492.715 1613.03 564.379 C 1619.43 575.517 1633.51 600.031 1637.43 611.354 C 1653.72 643.564 1667.84 688.032 1677.45 722.671 C 1716.48 863.387 1712.72 1017.8 1668.63 1156.86 C 1644.3 1233.57 1607.46 1306.35 1560.86 1372 C 1550.4 1386.8 1536.63 1401.26 1525.06 1414.88 C 1490.73 1455.33 1451.57 1488.43 1404.44 1512.5 C 1343.47 1543.63 1293.57 1543.35 1227.93 1534.18 C 1222.17 1533.38 1201.65 1530.49 1197.33 1531.83 C 1211 1572.91 1227.52 1635.58 1257.65 1665.97 C 1266.67 1675.06 1329.72 1673.36 1342.28 1668.38 C 1353.71 1663.85 1378.56 1643.21 1387.2 1658.79 C 1395.22 1678.49 1360.54 1695.88 1353.21 1705.37 C 1329.52 1736.03 1311.32 1722.92 1280.94 1735.46 C 1263.03 1742.85 1245.47 1774.72 1222.05 1762.33 C 1196.73 1748.93 1199.2 1719.3 1195.96 1695.36 C 1190.64 1661.29 1165.43 1632 1146.6 1604.31 C 1136.25 1589.18 1126.49 1573.65 1117.32 1557.78 C 1114.24 1552.56 1103.64 1534.96 1101.94 1529.71 C 1082.16 1524.27 1037.78 1524.07 1017.03 1523.74 C 940.858 1522.53 868.183 1532.36 795.408 1554.96 C 760.212 1565.89 725.964 1580.57 691.801 1591.72 C 682.095 1606.94 660.981 1638.9 653.713 1653.9 C 662.644 1672.58 669.634 1690.21 674.502 1710.36 C 676.285 1717.74 679.471 1726.51 684.252 1732.28 C 692.843 1743.18 730.126 1753.25 729.978 1768.09 C 728.724 1770.71 725.653 1773.23 722.601 1773.8 C 701.61 1777.75 662.918 1782.73 643.537 1775.01 C 626.165 1768.09 624.938 1735.29 614.856 1721.65 C 596.202 1695.32 561.091 1672.38 571.753 1634.86 C 558.245 1634.89 545.735 1637.21 530.171 1636.87 C 487.989 1635.96 432.635 1622.77 394.616 1603.79 C 305.577 1559.34 240.053 1480.98 207.557 1387.75 C 167.045 1271.52 177.181 1148.61 230.917 1038.67 C 271.263 956.12 341.854 875.536 430.458 844.348 C 461.035 833.585 492.883 828.028 522.831 842.934 C 563.946 863.398 579.352 908.03 593.307 948.379 C 610.218 835.869 643.932 731.08 725.353 647.844 C 732.786 640.244 744.854 627.509 753.861 622.639 C 757.594 618.593 765.5 613.21 770.132 609.958 C 795.859 591.896 817.101 584.39 846.657 576.321 C 847.235 556.767 857.685 512.384 867.556 496.34 C 871.945 484.404 885.53 466.558 894.092 457.262 L 903.239 448.221 C 933.006 426.654 982.417 388.828 947.557 346.044 C 940.663 337.584 928.82 307.285 936.656 298.783 C 938.655 298.023 942.772 297.624 943.182 298.661 C 947.554 309.719 949.062 342.923 964.481 345.199 C 976.8 339.593 972.483 314.775 970.458 303.981 C 969.939 301.213 971.249 300.353 972.913 298.688 C 977.237 297.496 975.35 297.209 978.847 298.627 C 983.661 304.855 984.222 316.655 985.328 324.844 C 990.121 319.686 990.401 318.921 993.481 312.702 C 1013.12 302.086 1019.81 287.117 1023.4 266.458 C 1001.43 238.603 963.035 222.602 929.427 240.736 C 861.391 277.448 899.772 346.27 896.611 405.787 C 895.687 423.18 889.731 434.669 884.537 451.03 C 885.031 450.577 885.525 450.125 886.019 449.672 C 911.108 423.206 919.766 395.379 916.233 359.317 C 915.413 350.946 913.427 341.469 913.198 333.076 C 913.148 331.255 915.448 330.083 916.88 329.046 C 927.008 329.68 927.687 356.284 928.283 364.253 C 930.582 395 922.057 423.808 901.435 447.027 L 893.194 455.448 z" fill="rgb(90,126,106)" transform="translate(0,0)"></path>
<path d="M 753.861 622.639 C 757.594 618.593 765.5 613.21 770.132 609.958 C 795.859 591.896 817.101 584.39 846.657 576.321 C 846.018 583.854 845.823 590.7 845.633 598.265 C 845.748 615.927 845.976 633.588 846.316 651.247 C 846.62 661.852 848.333 676.836 847.401 686.902 C 844.05 723.113 839.062 759.082 837.506 795.529 C 837.222 802.2 833.608 812.508 831.889 819.149 C 829.313 828.892 827.715 838.867 827.119 848.927 C 826.232 863.196 825.966 877.463 825.233 891.713 C 822.569 943.57 829.614 995.164 827.739 1047.04 C 826.637 1077.51 818.485 1106.67 813.84 1136.6 C 811.104 1154.23 809.681 1172.43 807.361 1190.17 C 803.999 1215.38 799.329 1240.4 793.372 1265.12 C 782.586 1309.33 773.4 1306.09 746.135 1338.35 C 684.386 1411.39 662.362 1505.09 625.463 1590.5 C 616.644 1610.91 585.598 1612.5 571.753 1634.86 C 558.245 1634.89 545.735 1637.21 530.171 1636.87 C 487.989 1635.96 432.635 1622.77 394.616 1603.79 C 305.577 1559.34 240.053 1480.98 207.557 1387.75 C 167.045 1271.52 177.181 1148.61 230.917 1038.67 C 271.263 956.12 341.854 875.536 430.458 844.348 C 461.035 833.585 492.883 828.028 522.831 842.934 C 563.946 863.398 579.352 908.03 593.307 948.379 C 610.218 835.869 643.932 731.08 725.353 647.844 C 732.786 640.244 744.854 627.509 753.861 622.639 z" fill="url(#Gradient2)" transform="translate(0,0)"></path>
<path d="M 753.861 622.639 C 757.594 618.593 765.5 613.21 770.132 609.958 C 795.859 591.896 817.101 584.39 846.657 576.321 C 846.018 583.854 845.823 590.7 845.633 598.265 C 842.822 602.645 845.841 621.347 844.317 628.676 L 843.686 622.777 C 841.733 621.635 842.393 621.631 840.538 621.926 C 831.025 623.44 823.993 619.674 815.066 618.078 C 811.548 617.449 806.252 622.005 801.085 620.658 C 793.994 618.809 789.092 614.555 782.607 612.032 C 781.809 611.722 775.584 614.502 774.577 614.86 C 774.558 614.867 768.383 613.812 768.374 613.817 C 762.733 616.793 760.072 621.114 753.861 622.639 z" fill="rgb(158,175,156)" transform="translate(0,0)"></path>
<path d="M 307.856 1401.03 L 308.51 1401.58 C 310.803 1407.06 312.302 1409.69 310.561 1415.26 C 307.635 1417.43 309.333 1416.8 305.04 1416.42 C 302.615 1413.3 299.793 1410.39 299.769 1406.57 C 302.368 1402.72 302.941 1403.41 307.856 1401.03 z" fill="rgb(90,126,106)" transform="translate(0,0)"></path>
<path d="M 375.019 1282.28 C 379.415 1283.35 380.481 1284.22 382.069 1288.46 C 381.648 1293.43 382.238 1291.52 379.391 1295.63 C 374.582 1294.98 374.079 1294.43 372.238 1290.26 C 372.288 1286.07 372.583 1285.9 375.019 1282.28 z" fill="rgb(90,126,106)" transform="translate(0,0)"></path>
<path d="M 343.004 1544.15 C 346.137 1544.32 350.598 1544.12 352.936 1545.8 C 353.589 1549.45 352.893 1549.07 350.882 1553.24 L 349.517 1553.7 C 346.256 1551.39 343.558 1548.16 343.004 1544.15 z" fill="rgb(90,126,106)" transform="translate(0,0)"></path>
<path d="M 224.483 1237.68 C 231.599 1233.34 235.138 1250.23 235.865 1254.42 C 232.402 1252.77 230.189 1244.83 227.18 1239.79 L 225.486 1239.12 L 224.483 1237.68 z" fill="rgb(90,126,106)" transform="translate(0,0)"></path>
<path d="M 272.597 1353.71 C 277.118 1357.14 279.476 1359.96 278.244 1365.51 C 272.971 1362.18 270.401 1359.83 272.597 1353.71 z" fill="rgb(90,126,106)" transform="translate(0,0)"></path>
<path d="M 525.918 1441.48 C 531.623 1441.82 535.318 1445.59 536.48 1451.05 L 533.955 1451.01 C 530.876 1448.96 528.177 1444.6 525.918 1441.48 z" fill="rgb(90,126,106)" transform="translate(0,0)"></path>
<path d="M 431.684 1077.57 C 436.445 1080.91 437.202 1086.41 434.754 1091.42 C 434.132 1091.48 433.538 1091.13 432.942 1090.94 C 432.587 1086.48 432.167 1082.02 431.684 1077.57 z" fill="rgb(90,126,106)" transform="translate(0,0)"></path>
<path d="M 268.655 1384.38 L 272.258 1385.61 C 275.172 1388.7 275.677 1392.53 276.839 1396.77 C 275.251 1396.43 275.534 1396.35 274.074 1395.37 C 272.388 1390.81 271.828 1389.46 269.252 1385.32 L 268.655 1384.38 z" fill="rgb(90,126,106)" transform="translate(0,0)"></path>
<path d="M 517.871 1422.97 L 518.581 1424.32 C 516.962 1427.41 512.356 1428.67 508.325 1430.81 L 507.377 1429.21 C 508.887 1426.39 514.28 1424.7 517.871 1422.97 z" fill="rgb(90,126,106)" transform="translate(0,0)"></path>
<path d="M 331.482 1403.44 C 336.835 1405.08 337.259 1411.26 337.719 1416.04 C 334.592 1414.04 332.66 1407.07 331.482 1403.44 z" fill="rgb(90,126,106)" transform="translate(0,0)"></path>
<path d="M 608.971 1468.14 C 611.75 1467.9 610.785 1467.91 613.6 1468.62 C 610.651 1470.53 607.73 1470.64 604.212 1471.21 C 601.574 1472.09 602.757 1472.25 600.523 1471.52 C 603.213 1468.99 605.341 1468.93 608.971 1468.14 z" fill="rgb(90,126,106)" transform="translate(0,0)"></path>
<path d="M 640.564 1190.87 L 641.578 1192.43 C 639.616 1194.98 635.953 1196.44 632.963 1197.97 L 632.102 1196.6 C 634.061 1194.11 637.675 1192.48 640.564 1190.87 z" fill="rgb(90,126,106)" transform="translate(0,0)"></path>
<path d="M 443.838 1497.81 C 444.678 1498.6 444.129 1498 445.012 1499.97 C 444.013 1503.56 442.377 1504.66 439.725 1507.3 L 438.692 1505.64 C 440.531 1503.39 441.533 1502.19 442.91 1499.6 L 443.838 1497.81 z" fill="rgb(90,126,106)" transform="translate(0,0)"></path>
<path d="M 432.903 1568.96 C 437.216 1569.38 441.338 1570.2 444.325 1573.18 C 440.038 1574.38 436.189 1571.28 432.903 1568.96 z" fill="rgb(90,126,106)" transform="translate(0,0)"></path>
<path d="M 563.667 1464.42 C 569.133 1463.33 571.424 1463.89 576.613 1465.55 C 570.97 1466.17 568.728 1466.75 563.667 1464.42 z" fill="rgb(90,126,106)" transform="translate(0,0)"></path>
<path d="M 455.76 1511.42 L 457.325 1511.33 C 456.801 1514.62 456.263 1517.07 455.486 1520.32 C 453.633 1517.32 454.841 1516.16 455.76 1511.42 z" fill="rgb(90,126,106)" transform="translate(0,0)"></path>
<path d="M 893.194 455.448 C 883.148 464.149 872.946 473.223 864.097 483.178 C 859.412 488.449 855.337 499.69 849.976 502.881 C 845.32 502.932 840.427 499.36 842.318 494.859 C 851.485 472.525 875.527 449.963 881.599 427.025 C 898.915 361.613 841.418 282.148 914.789 235.506 C 933.05 223.898 954.58 216.284 976.581 222.417 C 1032.84 238.099 1052.35 275.248 1040.47 330.83 C 1048.95 354.006 1064.71 356.887 1039.31 374.57 C 1040.51 382.699 1043.29 388.439 1034.45 391.779 C 1031.77 396.261 1034.71 401.337 1033.69 406.381 C 1029.86 425.374 1016.2 423.582 1001.01 421.677 C 998.279 423.207 998.92 423.836 997.608 427.861 C 992.861 456.638 988.903 476.244 995.652 505.168 L 996.098 506.345 C 1010.15 542.343 1036.22 575.571 1043.37 614.52 C 1046.26 630.309 1039.89 641.513 1036.04 655.974 C 1029.98 692.461 1024.24 729.793 1045.42 762.174 C 1063.44 802.119 1091.42 848.455 1113.6 886.512 C 1126.58 907.03 1138.35 929.854 1153.82 948.653 C 1180.71 981.33 1219.71 1001.47 1238.75 1041.05 C 1247.61 1056.05 1236.24 1078.67 1217.33 1071.2 C 1211.19 1069.35 1207.41 1073.06 1200.54 1071.87 C 1191.42 1070.29 1186.49 1065.76 1180.01 1060.16 C 1162.67 1045.17 1155.94 1025.35 1144.59 1006.8 C 1137.27 994.84 1119.8 981.217 1111.02 969.681 C 1084.84 940.221 1058.27 911.813 1033.21 881.369 C 1031.74 895.362 1029.86 906.209 1027.13 920.085 C 1041.18 959.571 1056.07 1014.31 1067.27 1055.03 C 1083.11 1111.5 1097.6 1168.35 1110.71 1225.52 C 1115.26 1246.32 1119.67 1267.15 1123.41 1288.13 C 1126.16 1303.5 1126.48 1319.81 1130.72 1334.85 C 1133.01 1342.97 1136.5 1351.74 1139.57 1359.68 C 1150.01 1386.64 1158.58 1414.18 1167.88 1441.53 C 1173.73 1458.75 1180.5 1475.71 1185.59 1493.2 C 1188.62 1504.04 1195.37 1521.63 1197.33 1531.83 C 1211 1572.91 1227.52 1635.58 1257.65 1665.97 C 1266.67 1675.06 1329.72 1673.36 1342.28 1668.38 C 1353.71 1663.85 1378.56 1643.21 1387.2 1658.79 C 1395.22 1678.49 1360.54 1695.88 1353.21 1705.37 C 1329.52 1736.03 1311.32 1722.92 1280.94 1735.46 C 1263.03 1742.85 1245.47 1774.72 1222.05 1762.33 C 1196.73 1748.93 1199.2 1719.3 1195.96 1695.36 C 1190.64 1661.29 1165.43 1632 1146.6 1604.31 C 1136.25 1589.18 1126.49 1573.65 1117.32 1557.78 C 1114.24 1552.56 1103.64 1534.96 1101.94 1529.71 C 1082.16 1524.27 1037.78 1524.07 1017.03 1523.74 C 940.858 1522.53 868.183 1532.36 795.408 1554.96 C 760.212 1565.89 725.964 1580.57 691.801 1591.72 C 682.095 1606.94 660.981 1638.9 653.713 1653.9 C 662.644 1672.58 669.634 1690.21 674.502 1710.36 C 676.285 1717.74 679.471 1726.51 684.252 1732.28 C 692.843 1743.18 730.126 1753.25 729.978 1768.09 C 728.724 1770.71 725.653 1773.23 722.601 1773.8 C 701.61 1777.75 662.918 1782.73 643.537 1775.01 C 626.165 1768.09 624.938 1735.29 614.856 1721.65 C 596.202 1695.32 561.091 1672.38 571.753 1634.86 C 585.598 1612.5 616.644 1610.91 625.463 1590.5 C 662.362 1505.09 684.386 1411.39 746.135 1338.35 C 773.4 1306.09 782.586 1309.33 793.372 1265.12 C 799.329 1240.4 803.999 1215.38 807.361 1190.17 C 809.681 1172.43 811.104 1154.23 813.84 1136.6 C 818.485 1106.67 826.637 1077.51 827.739 1047.04 C 829.614 995.164 822.569 943.57 825.233 891.713 C 825.966 877.463 826.232 863.196 827.119 848.927 C 827.715 838.867 829.313 828.892 831.889 819.149 C 833.608 812.508 837.222 802.2 837.506 795.529 C 839.062 759.082 844.05 723.113 847.401 686.902 C 848.333 676.836 846.62 661.852 846.316 651.247 C 845.976 633.588 845.748 615.927 845.633 598.265 C 845.823 590.7 846.018 583.854 846.657 576.321 C 847.235 556.767 857.685 512.384 867.556 496.34 C 871.945 484.404 885.53 466.558 894.092 457.262 L 903.239 448.221 C 933.006 426.654 982.417 388.828 947.557 346.044 C 940.663 337.584 928.82 307.285 936.656 298.783 C 938.655 298.023 942.772 297.624 943.182 298.661 C 947.554 309.719 949.062 342.923 964.481 345.199 C 976.8 339.593 972.483 314.775 970.458 303.981 C 969.939 301.213 971.249 300.353 972.913 298.688 C 977.237 297.496 975.35 297.209 978.847 298.627 C 983.661 304.855 984.222 316.655 985.328 324.844 C 990.121 319.686 990.401 318.921 993.481 312.702 C 1013.12 302.086 1019.81 287.117 1023.4 266.458 C 1001.43 238.603 963.035 222.602 929.427 240.736 C 861.391 277.448 899.772 346.27 896.611 405.787 C 895.687 423.18 889.731 434.669 884.537 451.03 C 885.031 450.577 885.525 450.125 886.019 449.672 C 911.108 423.206 919.766 395.379 916.233 359.317 C 915.413 350.946 913.427 341.469 913.198 333.076 C 913.148 331.255 915.448 330.083 916.88 329.046 C 927.008 329.68 927.687 356.284 928.283 364.253 C 930.582 395 922.057 423.808 901.435 447.027 L 893.194 455.448 z" fill="url(#Gradient1)" transform="translate(0,0)"></path>
<path d="M 948.857 1165.18 C 969.204 1196.23 986.394 1232.71 1006.63 1264.32 C 1015.98 1278.92 1033.89 1301.66 1039.19 1317.43 C 1045.92 1337.45 1044.3 1366.69 1050.17 1387.85 C 1061.57 1437.38 1080.65 1483.93 1101.94 1529.71 C 1082.16 1524.27 1037.78 1524.07 1017.03 1523.74 C 940.858 1522.53 868.183 1532.36 795.408 1554.96 C 760.212 1565.89 725.964 1580.57 691.801 1591.72 C 696.935 1580.51 707.451 1568.2 713.999 1557.19 C 748.561 1499.06 787.864 1443.53 827.462 1388.74 C 839.847 1371.6 859.775 1357.38 871.544 1340.39 C 881.413 1326.15 888.827 1301.75 897.539 1286.36 C 913.2 1249.58 940.446 1203.33 948.857 1165.18 z" fill="rgb(90,126,106)" transform="translate(0,0)"></path>
<path d="M 886.927 483.295 C 894.587 472.907 903.85 461.357 914.023 453.39 C 926.891 466.3 937.215 476.652 951.251 488.302 C 961.773 497.035 975.808 506.845 985.103 516.045 L 987.239 518.128 C 999.614 540.898 1011.58 562.127 1021.9 585.85 C 1058.18 669.331 995.747 639.605 988.313 646.196 C 987.213 660.854 1013.48 658.887 1023.4 657.894 C 1020.81 681.243 1019.37 699.254 1019.86 722.891 C 1020.61 759.845 1024.87 797.622 1024.04 834.444 C 1023.55 850.45 1022.46 866.434 1020.79 882.36 C 1019.86 890.785 1015.44 916.366 1016.74 922.783 C 1024.56 961.292 1039.52 998.194 1049.43 1036.23 C 1054.88 1057.15 1060.94 1078.1 1066.53 1099.01 C 1082.12 1156.91 1096.13 1215.23 1108.55 1273.89 C 1112.58 1293.37 1113.57 1311.7 1117.03 1330.74 C 1118.38 1338.15 1126.15 1358.17 1128.92 1365.82 C 1135.81 1384.78 1142.55 1403.8 1149.13 1422.88 C 1158.74 1451.36 1167.6 1479.71 1177.72 1508.88 C 1195.36 1559.69 1208.88 1622.72 1240.48 1666.62 C 1247.3 1676.1 1258.96 1682.35 1270.61 1682.95 C 1296.62 1684.29 1320.62 1687.83 1345.96 1679.78 C 1355.47 1676.77 1372.13 1665.34 1375.28 1665.3 L 1376.07 1666.7 C 1373.27 1676.52 1354.47 1686.86 1346.96 1694.11 C 1340.73 1700.13 1336.06 1707.52 1328.42 1711.86 C 1311.2 1720.66 1290.87 1713.04 1273.91 1725.03 C 1260.62 1732.43 1242.9 1754.97 1230.79 1751.99 C 1224.46 1750.44 1217.19 1742.95 1214.86 1736.53 C 1205.48 1710.74 1212.88 1695.93 1200.68 1667.72 C 1186.92 1635.87 1171.85 1620.28 1153.65 1592.97 C 1135.46 1565.68 1115.57 1531.07 1101.59 1500.93 C 1084.01 1463.05 1069.35 1419 1060.5 1378.12 C 1056.33 1358.85 1055.8 1329.29 1049.77 1312.5 C 1043.36 1294.65 1022.87 1268.84 1012.61 1251.5 C 985.663 1205.12 959.257 1158.43 933.393 1111.43 C 916.327 1080.81 893.327 1041.27 879.709 1008.61 C 876.307 1000.45 881.819 973.327 882.674 963.624 C 889.532 921.315 900.006 880.12 899.636 836.905 C 899.555 827.55 899.783 813.674 901.31 804.703 L 900.258 804.005 C 900.231 802.284 906.873 775.497 908.037 771.44 C 911.514 759.317 915.311 745.311 918.925 733.152 L 946.042 644.516 C 949.982 631.86 954.077 619.211 958.08 606.58 C 958.751 604.524 958.62 602.06 957.747 600.047 C 955.758 595.462 958.054 593.499 954.798 589.297 C 948.693 598.832 943.8 637.849 935.697 646.376 C 927.639 665.843 921.053 694.711 914.768 715.572 C 905.446 746.514 894.095 779.641 888.349 811.337 C 887.15 824.164 888.148 837.088 887.638 850.003 C 885.598 901.694 869.962 951.223 866.97 1002.83 C 865.277 1027.07 863.227 1048.78 865.874 1073.48 C 868.557 1098.51 877.504 1133.43 861.07 1156.18 C 856.498 1162.51 831.171 1145.52 825.017 1141.92 C 830.063 1113.84 836.959 1083.52 838.946 1055.35 C 841.261 1022.51 837.772 988.373 836.946 955.499 C 836.01 918.188 836.249 880.424 839.506 843.223 C 840.071 836.727 841.192 827.847 842.812 821.474 C 843.977 816.891 848.162 809.411 848.451 804.796 C 849.665 785.422 850.649 765.995 852.422 746.666 C 856.116 708.745 861.228 670.976 867.746 633.437 C 870.772 615.708 874.237 598.057 878.137 580.5 C 880.163 571.717 888.906 552.839 882.004 546.323 C 880.391 546.228 879.702 545.851 878.291 546.853 C 868.641 553.71 859.925 614.956 857.538 628.603 C 855.508 573.203 859.198 532.266 886.927 483.295 z" fill="rgb(255,255,255)" transform="translate(0,0)"></path>
<path d="M 935.697 646.376 C 942.629 620.289 952.912 595.312 956.449 568.402 C 956.867 565.224 961.708 562.935 964.735 562.775 C 975.477 567.705 959.52 604.25 957.459 614.113 C 956.185 620.208 952.536 629.885 950.637 636.213 C 937.567 679.79 923.285 723.058 911.6 767.027 C 910.128 772.568 903.228 801.423 901.31 804.703 L 900.258 804.005 C 900.231 802.284 906.873 775.497 908.037 771.44 C 911.514 759.317 915.311 745.311 918.925 733.152 L 946.042 644.516 C 949.982 631.86 954.077 619.211 958.08 606.58 C 958.751 604.524 958.62 602.06 957.747 600.047 C 955.758 595.462 958.054 593.499 954.798 589.297 C 948.693 598.832 943.8 637.849 935.697 646.376 z" fill="rgb(90,126,106)" transform="translate(0,0)"></path>
<path d="M 876.985 1032.66 C 879.336 1035.41 888.785 1054.74 891.073 1059.38 C 907.206 1092.08 927.213 1123.16 943.702 1155.54 C 941.49 1160.13 939.787 1164.74 937.807 1169.71 C 915.817 1224.85 887.221 1277.57 862.709 1331.6 C 859.965 1337.65 844.643 1351.82 839.509 1357.1 C 831.08 1365.67 823.185 1374.76 815.87 1384.3 C 767.796 1447.44 724.447 1517.41 682.077 1584.51 C 673.616 1597.91 646.678 1638.49 642.247 1651.34 C 644.507 1660.59 650.493 1674.67 654.07 1684.27 C 660.4 1701.25 664.904 1730.93 677.256 1743.69 C 683.057 1749.68 704.988 1757.79 713.687 1762.79 L 715.055 1763.58 C 707.922 1764.77 701.511 1765.29 694.315 1765.86 C 657.045 1768.31 643.428 1773.62 633.665 1732.77 C 624.669 1695.14 573.61 1681.41 583.265 1636.01 C 594.105 1625.8 605.529 1625.53 616.902 1616.54 C 637.747 1599.94 646.434 1572.83 655.152 1548.56 C 664.587 1522.3 673.121 1496.44 683.963 1470.62 C 695.802 1442.67 709.365 1415.49 724.575 1389.22 C 733.764 1373.17 744.479 1358.05 756.573 1344.05 C 767.931 1330.88 792.17 1309.75 797.282 1293.98 C 810.885 1252.01 818.267 1196.78 823.341 1153.34 C 844.947 1169.65 865.943 1184.02 877.851 1149.49 C 892.019 1108.4 871.128 1073.56 876.985 1032.66 z" fill="rgb(255,255,255)" transform="translate(0,0)"></path>
<path d="M 1034.1 764.862 C 1043.26 777.489 1051.67 803.541 1060.73 818.463 C 1096.63 877.607 1126.79 946.469 1181.3 991.072 C 1198.58 1005.2 1225.34 1029.47 1230.68 1051.16 C 1232.28 1057.66 1224.03 1067.39 1215.18 1054.94 C 1210.8 1047.71 1209.08 1045.55 1203.31 1039.66 C 1205.86 1044.92 1213.51 1059.82 1204.43 1062.51 C 1191.61 1059.54 1173.38 1036.09 1167.56 1024.63 C 1159.3 1008.34 1155.9 1001.14 1143.07 987.494 C 1114.64 957.247 1086.55 926.009 1059.17 894.786 C 1050.95 885.403 1043.76 875.999 1034.71 867.226 C 1035.47 851.399 1036.1 836.298 1035.86 820.448 C 1035.59 802.26 1033.76 782.901 1034.1 764.862 z" fill="rgb(255,255,255)" transform="translate(0,0)"></path>
<path d="M 983.467 335.472 C 1008.62 323.72 1019.4 306.728 1033.5 284.362 C 1034.22 297.063 1034.22 311.639 1030.63 323.927 C 1029.35 328.324 1020.38 325.59 1018.7 333.94 C 1019.7 337.384 1019.53 337.399 1022 340.225 C 1025.31 342.071 1026.62 341.618 1030.64 341.435 L 1032.04 341.36 C 1034.43 343.177 1038.75 354.518 1040.44 358.308 L 1031.85 362.826 C 1030.09 374.94 1032.25 375.799 1022.73 384.116 C 1029.19 430.528 1005.54 404.627 993.448 405.606 C 988.733 409.311 987.781 422.455 986.656 429.258 C 983.257 449.002 979.235 471.13 982.337 491.087 C 982.475 493.52 982.455 495.141 982.379 497.583 C 973.157 494.165 933.842 455.685 923.668 447.346 C 956.383 423.469 974.995 398.284 968.323 356.207 C 981.428 352.475 980.424 348.04 983.467 335.472 z" fill="rgb(255,255,255)" transform="translate(0,0)"></path>
<path d="M 995.652 505.168 C 1093.95 343.189 1272.56 282.724 1440.3 383.758 C 1511.94 426.912 1570.88 492.715 1613.03 564.379 C 1619.43 575.517 1633.51 600.031 1637.43 611.354 C 1637.22 611.125 1637.01 610.897 1636.8 610.668 C 1628.73 600.199 1621.19 582.776 1615.08 571.73 C 1604.07 551.828 1564.04 491.845 1548.27 478.534 L 1546.51 480.398 C 1544.13 476.128 1549.67 479.793 1544.49 475.602 C 1542.42 476.7 1534.03 480.303 1532.01 480.435 C 1522.33 481.071 1497.32 483.664 1488.57 488.59 C 1470.62 498.694 1439.6 514.959 1424.37 528.113 L 1423.1 527.593 L 1423.34 527.864 C 1421.37 524.739 1420.58 522.552 1417.17 521.412 C 1410.76 521.6 1403.15 529.628 1395.57 533.193 L 1394.6 535.447 C 1394.3 535.498 1393.99 535.543 1393.69 535.6 C 1382.33 537.721 1367.15 544.121 1358 550.996 C 1352.62 555.039 1346.97 560.53 1341.16 563.774 C 1335.46 566.954 1328.27 568.274 1322.8 571.719 C 1317.96 574.771 1313.72 581.6 1308.93 585.465 C 1302.52 590.63 1295.7 591.069 1288.58 594.525 C 1283.79 596.85 1280.75 601.656 1275.36 603.613 C 1266.61 606.786 1257.11 601.616 1248.66 603.506 C 1243.26 604.714 1240.97 611.235 1234.86 612.158 C 1224.37 613.746 1208.31 618.633 1199.56 624.425 C 1193.71 628.303 1191.83 634.918 1184.35 636.008 C 1173.08 637.651 1140.18 648.438 1129.77 654.106 C 1121.13 658.808 1112.87 667.303 1103.22 669.605 C 1089.8 672.808 1075.88 678.646 1063.01 683.621 C 1052.14 687.822 1045.6 707.398 1034.46 713.917 C 1032.97 714.787 1032.56 715.295 1031.91 716.878 C 1032.12 732.161 1038.21 747.893 1046.33 760.714 L 1045.42 762.174 C 1024.24 729.793 1029.98 692.461 1036.04 655.974 C 1039.89 641.513 1046.26 630.309 1043.37 614.52 C 1036.22 575.571 1010.15 542.343 996.098 506.345 L 995.652 505.168 z" fill="rgb(158,175,156)" transform="translate(0,0)"></path>
<path d="M 952.948 1817.33 C 903.084 1811.25 854.781 1808.94 804.777 1806.29 C 727.137 1802.15 649.42 1799.59 571.676 1798.61 C 557.847 1798.4 544.015 1798.35 530.185 1798.48 C 523.692 1798.59 504.29 1800.48 499.759 1796.64 C 489.518 1777.31 531.936 1787.77 540.389 1785.8 C 542.098 1785.41 553.94 1785.93 556.262 1785.99 C 717.779 1789.77 880.694 1791.32 1040.82 1814.7 C 1050.86 1816.17 1061.59 1818.09 1071.23 1820.96 C 1073.59 1821.66 1073.88 1824.78 1074.25 1826.47 C 1073.31 1828.92 1072.6 1829.86 1070.15 1831.01 C 1061.1 1835.3 957.948 1831.77 938.644 1831.84 C 805.085 1831.86 671.555 1835.74 538.22 1843.48 C 533.43 1843.79 494.32 1845.34 492.473 1848.71 C 502.574 1847.28 515.356 1848.07 525.727 1848.11 L 581.863 1848.3 C 746.711 1847.93 911.532 1852.61 1076.09 1862.32 C 1098.01 1863.6 1190.1 1869.11 1205.28 1876.29 C 1207.79 1879.4 1207.15 1877.7 1207.6 1881.41 C 1206.84 1883.27 1205.8 1886.35 1203.73 1886.62 C 1140.27 1894.81 1024.79 1897.27 965.864 1900.5 C 928.449 1902.54 891.068 1905.15 853.735 1908.36 C 840.451 1909.49 827.201 1911 814.002 1912.88 C 804.882 1914.24 783.245 1921.43 779.215 1910.16 C 783.629 1901.93 796.517 1903.09 804.913 1901.59 C 826.894 1897.67 849.082 1895.74 871.331 1894.11 C 921.986 1890.29 972.705 1887.36 1023.46 1885.33 C 1056.99 1883.95 1102.12 1883.37 1134.37 1879.62 C 1117.83 1876.06 1094.57 1875.46 1077.55 1874.43 C 1038.95 1872.31 1000.34 1870.5 961.709 1869.02 C 833.043 1863.14 704.258 1860.23 575.457 1860.28 C 533.961 1859.95 492.464 1859.88 450.967 1860.06 C 433.393 1860.14 415.882 1860.42 398.298 1860.89 C 393.81 1861.01 390.177 1860.04 387.251 1856.69 C 386.956 1851.91 386.416 1853.98 388.268 1850.11 C 393.679 1846.76 406.576 1845.66 413.271 1844.66 C 504.053 1831.11 598.508 1827.02 689.948 1824.31 C 769.854 1822.17 849.777 1820.69 929.707 1819.87 C 937.225 1818.24 948.351 1820.57 952.948 1817.33 z" fill="rgb(34,62,46)" transform="translate(0,0)"></path>
<path d="M 952.948 1817.33 L 969.133 1819.22 C 956.482 1820.3 942.465 1820.21 929.707 1819.87 C 937.225 1818.24 948.351 1820.57 952.948 1817.33 z" fill="rgb(201,202,197)" transform="translate(0,0)"></path>
<metadata><recraft-signature>{"signed_by": "recraft", "signature_b64": "SDumLYKVgDmH6M3etOvBTMwMuOFmt0CjHKN4wEWtUsfIGTF5OVVMSQSuEy6HT18E4lywjyU81xViUDueXJhGCQ==", "signing_algo": "Ed25519", "generation_timestamp": 1772582933, "identifier": "79d05d72-96d0-4094-8761-d1ed2a505b96"}</recraft-signature></metadata></svg>